<svg preserveAspectRatio="none" width="100%" height="100%" overflow="visible" style="display: block;" viewBox="0 0 39 39" fill="none" xmlns="http://www.w3.org/2000/svg">
<g id="Bold / Essentional, UI / Mention Circle">
<g id="Vector">
<path d="M19.5 16.8188C20.9808 16.8188 22.1813 18.0192 22.1813 19.5C22.1813 20.9808 20.9808 22.1813 19.5 22.1813C18.0192 22.1813 16.8188 20.9808 16.8188 19.5C16.8188 18.0192 18.0192 16.8188 19.5 16.8188Z" fill="var(--fill-0, white)"/>
<path fill-rule="evenodd" clip-rule="evenodd" d="M19.5 3.25C10.5254 3.25 3.25 10.5254 3.25 19.5C3.25 28.4746 10.5254 35.75 19.5 35.75C28.4746 35.75 35.75 28.4746 35.75 19.5C35.75 10.5254 28.4746 3.25 19.5 3.25ZM10.9688 19.5C10.9688 14.7883 14.7883 10.9688 19.5 10.9688C24.2117 10.9688 28.0312 14.7883 28.0312 19.5C28.0312 20.5281 27.8499 21.5111 27.5186 22.4206C27.4611 22.5783 27.3479 22.7482 27.1672 22.9149L27.0363 23.0356C26.5475 23.4865 25.8136 23.5443 25.2603 23.1754C24.8595 22.9082 24.6188 22.4584 24.6188 21.9767V19.5C24.6188 16.673 22.327 14.3813 19.5 14.3813C16.673 14.3813 14.3813 16.673 14.3813 19.5C14.3813 22.327 16.673 24.6188 19.5 24.6188C20.6403 24.6188 21.6936 24.2459 22.5445 23.6154C22.8406 24.2504 23.3076 24.8032 23.9082 25.2036C25.3977 26.1966 27.3733 26.041 28.6891 24.8272L28.82 24.7064C29.2264 24.3315 29.5928 23.8478 29.8088 23.255C30.2362 22.082 30.4688 20.8168 30.4688 19.5C30.4688 13.4421 25.5579 8.53125 19.5 8.53125C13.4421 8.53125 8.53125 13.4421 8.53125 19.5C8.53125 25.5579 13.4421 30.4688 19.5 30.4688C20.1731 30.4688 20.7188 29.9231 20.7188 29.25C20.7188 28.5769 20.1731 28.0312 19.5 28.0312C14.7883 28.0312 10.9688 24.2117 10.9688 19.5Z" fill="var(--fill-0, white)"/>
</g>
</g>
</svg>
